#tb 0: 1001/30000
0,          0,          0,        1,  2073600, 0xf5f3e3e1
0,          1,          1,        1,  2073600, 0xe8074812
0,          2,          2,        1,  2073600, 0x7353efb9
0,          3,          3,        1,  2073600, 0xdde92f86
0,          4,          4,        1,  2073600, 0x8fbff266
0,          5,          5,        1,  2073600, 0x2aba2043
0,          6,          6,        1,  2073600, 0x50728ac5
0,          7,          7,        1,  2073600, 0x67d304f0
0,          8,          8,        1,  2073600, 0x8cb6f10d
0,          9,          9,        1,  2073600, 0x18029459
0,         10,         10,        1,  2073600, 0xeeea44b5
0,         11,         11,        1,  2073600, 0x82481eac
0,         12,         12,        1,  2073600, 0x0a25bf15
0,         13,         13,        1,  2073600, 0xca0b0ef8
0,         14,         14,        1,  2073600, 0x359460c6
0,         15,         15,        1,  2073600, 0x5e0af264
0,         16,         16,        1,  2073600, 0x75f57501
0,         17,         17,        1,  2073600, 0x28271d1a
0,         18,         18,        1,  2073600, 0x061f824a
0,         19,         19,        1,  2073600, 0x8825e30a
0,         20,         20,        1,  2073600, 0xf14c66ac
0,         21,         21,        1,  2073600, 0x7ebaed1a
0,         22,         22,        1,  2073600, 0x2651a351
0,         23,         23,        1,  2073600, 0x7b08ff52
0,         24,         24,        1,  2073600, 0xc637c72d
0,         25,         25,        1,  2073600, 0xede1419c
0,         26,         26,        1,  2073600, 0x36cd7751
0,         27,         27,        1,  2073600, 0xd67bcc5c
0,         28,         28,        1,  2073600, 0x20afe4bb
0,         29,         29,        1,  2073600, 0x4786dff3
0,         30,         30,        1,  2073600, 0xe4c8a4c5
0,         31,         31,        1,  2073600, 0x7fe12045
0,         32,         32,        1,  2073600, 0xc6053b22
0,         33,         33,        1,  2073600, 0x31453d72
0,         34,         34,        1,  2073600, 0x4e68bd0c
0,         35,         35,        1,  2073600, 0xe6e34c14
0,         36,         36,        1,  2073600, 0xe2425116
0,         37,         37,        1,  2073600, 0xeebd9faa
0,         38,         38,        1,  2073600, 0xd53ad9e1
0,         39,         39,        1,  2073600, 0x4412add3
0,         40,         40,        1,  2073600, 0x5eb25abd
0,         41,         41,        1,  2073600, 0x1b379ba3
0,         42,         42,        1,  2073600, 0x3c6ffef2
0,         43,         43,        1,  2073600, 0x2672c586
0,         44,         44,        1,  2073600, 0x843a1037
0,         45,         45,        1,  2073600, 0x7eb2f397
0,         46,         46,        1,  2073600, 0xdf4a8261
0,         47,         47,        1,  2073600, 0xf8c12631
0,         48,         48,        1,  2073600, 0xc4123975
0,         49,         49,        1,  2073600, 0x5aed3c46
0,         50,         50,        1,  2073600, 0xa49f2522
0,         51,         51,        1,  2073600, 0xd7bc6f78
0,         52,         52,        1,  2073600, 0xefdce8f5
0,         53,         53,        1,  2073600, 0x594e359a
0,         54,         54,        1,  2073600, 0x58b47689
0,         55,         55,        1,  2073600, 0xe3b59eb7
0,         56,         56,        1,  2073600, 0x0a5c6781
0,         57,         57,        1,  2073600, 0xa9ec13ce
0,         58,         58,        1,  2073600, 0x67a904bb
0,         59,         59,        1,  2073600, 0xfc8a43ac
0,         60,         60,        1,  2073600, 0x3d8fa539
0,         61,         61,        1,  2073600, 0xcebc35be
0,         62,         62,        1,  2073600, 0x8f7fdf35
0,         63,         63,        1,  2073600, 0x9f4fb7fa
0,         64,         64,        1,  2073600, 0x5574f0dd
0,         65,         65,        1,  2073600, 0x8d53790d
0,         66,         66,        1,  2073600, 0x8c4e569c
0,         67,         67,        1,  2073600, 0x5efb67db
0,         68,         68,        1,  2073600, 0x5bbd124c
0,         69,         69,        1,  2073600, 0xd9080057
0,         70,         70,        1,  2073600, 0x4e4d22fd
0,         71,         71,        1,  2073600, 0xc96f2a8d
0,         72,         72,        1,  2073600, 0x1766af15
0,         73,         73,        1,  2073600, 0x81f741c0
0,         74,         74,        1,  2073600, 0x09f6d14c
0,         75,         75,        1,  2073600, 0x8de90523
0,         76,         76,        1,  2073600, 0x98edc32f
0,         77,         77,        1,  2073600, 0x82eebcfd
0,         78,         78,        1,  2073600, 0x109f7f8f
0,         79,         79,        1,  2073600, 0xa0288d17
0,         80,         80,        1,  2073600, 0x70a1f6a2
0,         81,         81,        1,  2073600, 0xbdb3c765
0,         82,         82,        1,  2073600, 0x14fb783a
0,         83,         83,        1,  2073600, 0xf765e3be
0,         84,         84,        1,  2073600, 0x3fbb28fe
0,         85,         85,        1,  2073600, 0xe5fe6a9e
0,         86,         86,        1,  2073600, 0x78875894
0,         87,         87,        1,  2073600, 0xc5cfdbbb
0,         88,         88,        1,  2073600, 0x0abc5210
0,         89,         89,        1,  2073600, 0xc05c9448
0,         90,         90,        1,  2073600, 0xbf5b46af
0,         91,         91,        1,  2073600, 0x126c9764
0,         92,         92,        1,  2073600, 0xfe38124d
0,         93,         93,        1,  2073600, 0x70b5617c
0,         94,         94,        1,  2073600, 0x742e7034
0,         95,         95,        1,  2073600, 0xa7b0c6b5
0,         96,         96,        1,  2073600, 0xc28ca3fc
0,         97,         97,        1,  2073600, 0xa6805822
0,         98,         98,        1,  2073600, 0xd89c9cc0
0,         99,         99,        1,  2073600, 0xd85e6aa2
0,        100,        100,        1,  2073600, 0x799b929b
0,        101,        101,        1,  2073600, 0xb16b935d
0,        102,        102,        1,  2073600, 0x18e6facb
0,        103,        103,        1,  2073600, 0xea78290c
0,        104,        104,        1,  2073600, 0xcdc3300e
0,        105,        105,        1,  2073600, 0x5b677de5
0,        106,        106,        1,  2073600, 0xba76e686
0,        107,        107,        1,  2073600, 0x898f4125
0,        108,        108,        1,  2073600, 0x53ab7409
0,        109,        109,        1,  2073600, 0x50790f8b
0,        110,        110,        1,  2073600, 0xdeccd97d
0,        111,        111,        1,  2073600, 0x78bbb402
0,        112,        112,        1,  2073600, 0x39b2d173
0,        113,        113,        1,  2073600, 0x03781e67
0,        114,        114,        1,  2073600, 0x32cc6062
0,        115,        115,        1,  2073600, 0x92045cbd
0,        116,        116,        1,  2073600, 0xda9e8cef
0,        117,        117,        1,  2073600, 0x3535a22b
0,        118,        118,        1,  2073600, 0x62e1fe42
0,        119,        119,        1,  2073600, 0xbf21e7cb
0,        120,        120,        1,  2073600, 0x90dee1ab
0,        121,        121,        1,  2073600, 0xd53fb870
0,        122,        122,        1,  2073600, 0xbe6f7ea3
0,        123,        123,        1,  2073600, 0x91d6fc5d
0,        124,        124,        1,  2073600, 0xe11ff068
0,        125,        125,        1,  2073600, 0xaf157294
0,        126,        126,        1,  2073600, 0xf76aa5a3
0,        127,        127,        1,  2073600, 0xf77b67ee
0,        128,        128,        1,  2073600, 0x774012b9
0,        129,        129,        1,  2073600, 0x9b353275
0,        130,        130,        1,  2073600, 0x99b6876f
0,        131,        131,        1,  2073600, 0x24c88f93
0,        132,        132,        1,  2073600, 0xf5cb588d
0,        133,        133,        1,  2073600, 0xecbe6eb4
0,        134,        134,        1,  2073600, 0x50eec094
0,        135,        135,        1,  2073600, 0x744ba83b
0,        136,        136,        1,  2073600, 0x57706cc6
0,        137,        137,        1,  2073600, 0x22765e59
0,        138,        138,        1,  2073600, 0xccaab936
0,        139,        139,        1,  2073600, 0xf00a7ab0
0,        140,        140,        1,  2073600, 0x8f3268e1
0,        141,        141,        1,  2073600, 0x32b2ed19
0,        142,        142,        1,  2073600, 0x02b94cea
0,        143,        143,        1,  2073600, 0x331cfafb
0,        144,        144,        1,  2073600, 0x1eca7028
0,        145,        145,        1,  2073600, 0xc5819466
0,        146,        146,        1,  2073600, 0xd88f697b
0,        147,        147,        1,  2073600, 0x159210a0
0,        148,        148,        1,  2073600, 0xdaf6fee7
0,        149,        149,        1,  2073600, 0x154afadc
0,        150,        150,        1,  2073600, 0x946ef75c
0,        151,        151,        1,  2073600, 0x9c9ae3aa
0,        152,        152,        1,  2073600, 0x2e1fa783
0,        153,        153,        1,  2073600, 0x524a9903
0,        154,        154,        1,  2073600, 0xdf8844b0
0,        155,        155,        1,  2073600, 0xe818f332
0,        156,        156,        1,  2073600, 0x5d58fbcf
0,        157,        157,        1,  2073600, 0x98575be4
0,        158,        158,        1,  2073600, 0xe5ffe83a
0,        159,        159,        1,  2073600, 0x60bd9e86
0,        160,        160,        1,  2073600, 0xb568b228
0,        161,        161,        1,  2073600, 0x9c1865f5
0,        162,        162,        1,  2073600, 0xc456aab3
0,        163,        163,        1,  2073600, 0xafd6d001
0,        164,        164,        1,  2073600, 0x2f7007ea
0,        165,        165,        1,  2073600, 0x1046f3d3
0,        166,        166,        1,  2073600, 0x69cc5d7d
0,        167,        167,        1,  2073600, 0xbe07f3f3
0,        168,        168,        1,  2073600, 0x42cc3bfe
0,        169,        169,        1,  2073600, 0x003bec59
0,        170,        170,        1,  2073600, 0x5a595072
0,        171,        171,        1,  2073600, 0x4faaf91c
0,        172,        172,        1,  2073600, 0x2a6cade6
0,        173,        173,        1,  2073600, 0xe7451a12
0,        174,        174,        1,  2073600, 0x75b20b90
0,        175,        175,        1,  2073600, 0xbe714154
0,        176,        176,        1,  2073600, 0x16320a4b
0,        177,        177,        1,  2073600, 0x7bf7909a
